<svg xmlns="http://www.w3.org/2000/svg"  viewBox="0 0 48 48" width="48px" height="48px" baseProfile="basic"><path fill="#05bdba" d="M13.894,36.994h-0.413l-2.063-2.063v-0.412l3.163-3.163h2.2l0.309,0.309v2.2L13.894,36.994z"/><path fill="#05bdba" d="M11.419,13.516v-0.413l2.063-2.063h0.413l3.163,3.163v2.2l-0.275,0.275h-2.2L11.419,13.516z"/><path fill="#014847" d="M29.672,30.291h-3.025l-0.241-0.241v-7.081c0-1.272-0.481-2.234-1.994-2.269	c-0.791-0.034-1.684,0-2.612,0.034l-0.138,0.137v9.144l-0.241,0.241h-3.025l-0.241-0.241V17.984l0.241-0.241h6.806	c2.647,0,4.778,2.131,4.778,4.778v7.528L29.672,30.291z"/><path fill="#05bdba" d="M14.306,25.753H2.241L2,25.513v-3.025l0.241-0.241h12.066l0.241,0.241v3.025L14.306,25.753z"/><path fill="#05bdba" d="M45.759,25.753H33.694l-0.241-0.241v-3.025l0.241-0.241h12.066L46,22.488v3.025L45.759,25.753z"/><path fill="#05bdba" d="M22.247,13.963V4.888l0.275-0.241h3.025l0.241,0.241v9.041l-0.241,0.241h-3.025L22.247,13.963z"/><path fill="#05bdba" d="M22.247,43.113v-9.041l0.241-0.241h3.025l0.241,0.241v9.041l-0.241,0.241h-3.025L22.247,43.113z"/></svg>